# xmcd CD database file
#
# Track frame offsets:
#	150
#	15427
#	32681
#	46926
#	68235
#	83632
#	101564
#	117329
#	130573
#	144820
#	161925
#	181097
#	195579
#	215346
#	233930
#
# Disc length: 3310 seconds
#
# Revision: 5
# Processed by: cddbd v1.5.2PL0 Copyright (c) Steve Scherf et al.
# Submitted via: CDex 1.70beta2
#
DISCID=bd0cec0f
DTITLE=Various Artist - 青春歌年鑑 ’76 BEST 30 Disc 02
DYEAR=1976
DGENRE=歌謡曲
TTITLE0=春一番 - キャンディーズ
TTITLE1=揺れるまなざし - 小椋  佳
TTITLE2=パールカラーにゆれて - 山口百恵
TTITLE3=盆帰り - 中村  雅俊
TTITLE4=あなたがいたから僕がいた - 郷  ひろみ
TTITLE5=20歳のめぐり逢い - シグナル
TTITLE6=裏切者の旅 - ダウン・タウン・ブギウギ・バンド
TTITLE7=パタパタママ - のこ  いのこ
TTITLE8=ハートのエースが出てこない - キャンディーズ
TTITLE9=嫁に来ないか - 新沼  謙二
TTITLE10=傾いた道しるべ - 布施  明
TTITLE11=恋人試験 - 松本  ちえこ
TTITLE12=愚  図 - 研  ナオコ
TTITLE13=帰らざる日 - ア リ ス
TTITLE14=河内のオッサンの唄 - ミス  花子
EXTD=YEAR: 1976
EXTT0=
EXTT1=
EXTT2=
EXTT3=
EXTT4=
EXTT5=
EXTT6=
EXTT7=
EXTT8=
EXTT9=
EXTT10=
EXTT11=
EXTT12=
EXTT13=
EXTT14=
PLAYORDER=
